<mxfile host="app.diagrams.net" modified="2023-03-28T17:26:46.883Z" agent="Mozilla/5.0 (Windows NT 10.0; Win64; x64) AppleWebKit/537.36 (KHTML, like Gecko) Chrome/108.0.0.0 YaBrowser/23.1.4.777 Yowser/2.5 Safari/537.36" etag="lumyR2KcT5QBKxhvos4e" version="21.1.0" type="device">
  <diagram name="Страница 1" id="zkKOzq44meLIV0d0nKjZ">
    <mxGraphModel dx="1113" dy="682" grid="1" gridSize="10" guides="1" tooltips="1" connect="1" arrows="1" fold="1" page="1" pageScale="1" pageWidth="827" pageHeight="1169" math="0" shadow="0">
      <root>
        <mxCell id="0" />
        <mxCell id="1" parent="0" />
        <mxCell id="COPAdZCLLeljkkv6jSeN-3" value="" style="edgeStyle=orthogonalEdgeStyle;rounded=0;orthogonalLoop=1;jettySize=auto;html=1;" edge="1" parent="1" source="COPAdZCLLeljkkv6jSeN-1" target="COPAdZCLLeljkkv6jSeN-2">
          <mxGeometry relative="1" as="geometry" />
        </mxCell>
        <mxCell id="COPAdZCLLeljkkv6jSeN-1" value="Start" style="ellipse;whiteSpace=wrap;html=1;" vertex="1" parent="1">
          <mxGeometry x="354" y="30" width="120" height="20" as="geometry" />
        </mxCell>
        <mxCell id="COPAdZCLLeljkkv6jSeN-5" value="" style="edgeStyle=orthogonalEdgeStyle;rounded=0;orthogonalLoop=1;jettySize=auto;html=1;" edge="1" parent="1" source="COPAdZCLLeljkkv6jSeN-2" target="COPAdZCLLeljkkv6jSeN-4">
          <mxGeometry relative="1" as="geometry" />
        </mxCell>
        <mxCell id="COPAdZCLLeljkkv6jSeN-2" value="string[] array, int value, int length = 0" style="whiteSpace=wrap;html=1;" vertex="1" parent="1">
          <mxGeometry x="313" y="80" width="201" height="60" as="geometry" />
        </mxCell>
        <mxCell id="COPAdZCLLeljkkv6jSeN-7" value="" style="edgeStyle=orthogonalEdgeStyle;rounded=0;orthogonalLoop=1;jettySize=auto;html=1;" edge="1" parent="1" source="COPAdZCLLeljkkv6jSeN-4" target="COPAdZCLLeljkkv6jSeN-6">
          <mxGeometry relative="1" as="geometry" />
        </mxCell>
        <mxCell id="COPAdZCLLeljkkv6jSeN-4" value="string[] arrTemp = new string[length]" style="whiteSpace=wrap;html=1;" vertex="1" parent="1">
          <mxGeometry x="310" y="180" width="206.5" height="60" as="geometry" />
        </mxCell>
        <mxCell id="COPAdZCLLeljkkv6jSeN-9" value="" style="edgeStyle=orthogonalEdgeStyle;rounded=0;orthogonalLoop=1;jettySize=auto;html=1;" edge="1" parent="1" source="COPAdZCLLeljkkv6jSeN-6" target="COPAdZCLLeljkkv6jSeN-8">
          <mxGeometry relative="1" as="geometry" />
        </mxCell>
        <mxCell id="COPAdZCLLeljkkv6jSeN-25" value="" style="edgeStyle=orthogonalEdgeStyle;rounded=0;orthogonalLoop=1;jettySize=auto;html=1;" edge="1" parent="1" source="COPAdZCLLeljkkv6jSeN-6" target="COPAdZCLLeljkkv6jSeN-24">
          <mxGeometry relative="1" as="geometry" />
        </mxCell>
        <mxCell id="COPAdZCLLeljkkv6jSeN-6" value="int i = 0, j = 0; i &amp;lt; array.Length; i++" style="rhombus;whiteSpace=wrap;html=1;" vertex="1" parent="1">
          <mxGeometry x="303.25" y="290" width="220" height="80" as="geometry" />
        </mxCell>
        <mxCell id="COPAdZCLLeljkkv6jSeN-12" value="" style="edgeStyle=orthogonalEdgeStyle;rounded=0;orthogonalLoop=1;jettySize=auto;html=1;" edge="1" parent="1" source="COPAdZCLLeljkkv6jSeN-8" target="COPAdZCLLeljkkv6jSeN-11">
          <mxGeometry relative="1" as="geometry" />
        </mxCell>
        <mxCell id="COPAdZCLLeljkkv6jSeN-8" value="array[i].Length &amp;lt;= value" style="rhombus;whiteSpace=wrap;html=1;" vertex="1" parent="1">
          <mxGeometry x="335.63" y="420" width="156.75" height="80" as="geometry" />
        </mxCell>
        <mxCell id="COPAdZCLLeljkkv6jSeN-10" value="yes" style="text;html=1;align=center;verticalAlign=middle;resizable=0;points=[];autosize=1;strokeColor=none;fillColor=none;" vertex="1" parent="1">
          <mxGeometry x="410" y="380" width="40" height="30" as="geometry" />
        </mxCell>
        <mxCell id="COPAdZCLLeljkkv6jSeN-15" value="" style="edgeStyle=orthogonalEdgeStyle;rounded=0;orthogonalLoop=1;jettySize=auto;html=1;" edge="1" parent="1" source="COPAdZCLLeljkkv6jSeN-11" target="COPAdZCLLeljkkv6jSeN-14">
          <mxGeometry relative="1" as="geometry" />
        </mxCell>
        <mxCell id="COPAdZCLLeljkkv6jSeN-19" style="edgeStyle=orthogonalEdgeStyle;rounded=0;orthogonalLoop=1;jettySize=auto;html=1;exitX=1;exitY=0.5;exitDx=0;exitDy=0;entryX=1;entryY=0.5;entryDx=0;entryDy=0;" edge="1" parent="1" source="COPAdZCLLeljkkv6jSeN-11" target="COPAdZCLLeljkkv6jSeN-17">
          <mxGeometry relative="1" as="geometry">
            <Array as="points">
              <mxPoint x="560" y="570" />
              <mxPoint x="560" y="720" />
            </Array>
          </mxGeometry>
        </mxCell>
        <mxCell id="COPAdZCLLeljkkv6jSeN-22" style="edgeStyle=orthogonalEdgeStyle;rounded=0;orthogonalLoop=1;jettySize=auto;html=1;exitX=0;exitY=0.5;exitDx=0;exitDy=0;" edge="1" parent="1" source="COPAdZCLLeljkkv6jSeN-11">
          <mxGeometry relative="1" as="geometry">
            <mxPoint x="300" y="330" as="targetPoint" />
            <Array as="points">
              <mxPoint x="256" y="570" />
              <mxPoint x="256" y="430" />
              <mxPoint x="300" y="430" />
            </Array>
          </mxGeometry>
        </mxCell>
        <mxCell id="COPAdZCLLeljkkv6jSeN-11" value="arrTemp.Length &amp;gt; 0 &amp;amp;&amp;amp; j &amp;lt; arrTemp.Length" style="rhombus;whiteSpace=wrap;html=1;" vertex="1" parent="1">
          <mxGeometry x="276.44" y="530" width="275.12" height="80" as="geometry" />
        </mxCell>
        <mxCell id="COPAdZCLLeljkkv6jSeN-13" value="yes" style="text;html=1;align=center;verticalAlign=middle;resizable=0;points=[];autosize=1;strokeColor=none;fillColor=none;" vertex="1" parent="1">
          <mxGeometry x="410" y="500" width="40" height="30" as="geometry" />
        </mxCell>
        <mxCell id="COPAdZCLLeljkkv6jSeN-18" value="" style="edgeStyle=orthogonalEdgeStyle;rounded=0;orthogonalLoop=1;jettySize=auto;html=1;" edge="1" parent="1" source="COPAdZCLLeljkkv6jSeN-14" target="COPAdZCLLeljkkv6jSeN-17">
          <mxGeometry relative="1" as="geometry" />
        </mxCell>
        <mxCell id="COPAdZCLLeljkkv6jSeN-14" value="&lt;div&gt;arrTemp[j] = array[i]&lt;/div&gt;&lt;div&gt;j++&lt;/div&gt;" style="whiteSpace=wrap;html=1;" vertex="1" parent="1">
          <mxGeometry x="355.25" y="640" width="116" height="40" as="geometry" />
        </mxCell>
        <mxCell id="COPAdZCLLeljkkv6jSeN-16" value="yes" style="text;html=1;align=center;verticalAlign=middle;resizable=0;points=[];autosize=1;strokeColor=none;fillColor=none;" vertex="1" parent="1">
          <mxGeometry x="410" y="610" width="40" height="30" as="geometry" />
        </mxCell>
        <mxCell id="COPAdZCLLeljkkv6jSeN-21" style="edgeStyle=orthogonalEdgeStyle;rounded=0;orthogonalLoop=1;jettySize=auto;html=1;exitX=0;exitY=0.75;exitDx=0;exitDy=0;entryX=0;entryY=0.5;entryDx=0;entryDy=0;" edge="1" parent="1" source="COPAdZCLLeljkkv6jSeN-17" target="COPAdZCLLeljkkv6jSeN-6">
          <mxGeometry relative="1" as="geometry">
            <Array as="points">
              <mxPoint x="230" y="725" />
              <mxPoint x="230" y="330" />
            </Array>
          </mxGeometry>
        </mxCell>
        <mxCell id="COPAdZCLLeljkkv6jSeN-17" value="length++" style="whiteSpace=wrap;html=1;" vertex="1" parent="1">
          <mxGeometry x="385.63" y="710" width="56.75" height="20" as="geometry" />
        </mxCell>
        <mxCell id="COPAdZCLLeljkkv6jSeN-20" value="no" style="text;html=1;align=center;verticalAlign=middle;resizable=0;points=[];autosize=1;strokeColor=none;fillColor=none;" vertex="1" parent="1">
          <mxGeometry x="530" y="625" width="40" height="30" as="geometry" />
        </mxCell>
        <mxCell id="COPAdZCLLeljkkv6jSeN-23" value="no" style="text;html=1;align=center;verticalAlign=middle;resizable=0;points=[];autosize=1;strokeColor=none;fillColor=none;" vertex="1" parent="1">
          <mxGeometry x="250" y="445" width="40" height="30" as="geometry" />
        </mxCell>
        <mxCell id="COPAdZCLLeljkkv6jSeN-29" value="" style="edgeStyle=orthogonalEdgeStyle;rounded=0;orthogonalLoop=1;jettySize=auto;html=1;exitX=1;exitY=0.5;exitDx=0;exitDy=0;entryX=0;entryY=0.5;entryDx=0;entryDy=0;" edge="1" parent="1" source="COPAdZCLLeljkkv6jSeN-24" target="COPAdZCLLeljkkv6jSeN-42">
          <mxGeometry relative="1" as="geometry">
            <mxPoint x="618.4" y="385" as="targetPoint" />
          </mxGeometry>
        </mxCell>
        <mxCell id="COPAdZCLLeljkkv6jSeN-48" value="" style="edgeStyle=orthogonalEdgeStyle;rounded=0;orthogonalLoop=1;jettySize=auto;html=1;exitX=0.5;exitY=0;exitDx=0;exitDy=0;" edge="1" parent="1" source="COPAdZCLLeljkkv6jSeN-42" target="COPAdZCLLeljkkv6jSeN-47">
          <mxGeometry relative="1" as="geometry">
            <mxPoint x="790" y="310" as="sourcePoint" />
          </mxGeometry>
        </mxCell>
        <mxCell id="COPAdZCLLeljkkv6jSeN-51" style="edgeStyle=orthogonalEdgeStyle;rounded=0;orthogonalLoop=1;jettySize=auto;html=1;exitX=0.5;exitY=1;exitDx=0;exitDy=0;entryX=0;entryY=0.5;entryDx=0;entryDy=0;" edge="1" parent="1" source="COPAdZCLLeljkkv6jSeN-24" target="COPAdZCLLeljkkv6jSeN-40">
          <mxGeometry relative="1" as="geometry" />
        </mxCell>
        <mxCell id="COPAdZCLLeljkkv6jSeN-24" value="length &amp;gt; 0" style="rhombus;whiteSpace=wrap;html=1;" vertex="1" parent="1">
          <mxGeometry x="580" y="310" width="76.75" height="40" as="geometry" />
        </mxCell>
        <mxCell id="COPAdZCLLeljkkv6jSeN-27" value="no" style="text;html=1;align=center;verticalAlign=middle;resizable=0;points=[];autosize=1;strokeColor=none;fillColor=none;" vertex="1" parent="1">
          <mxGeometry x="530" y="325" width="40" height="30" as="geometry" />
        </mxCell>
        <mxCell id="COPAdZCLLeljkkv6jSeN-30" value="yes" style="text;html=1;align=center;verticalAlign=middle;resizable=0;points=[];autosize=1;strokeColor=none;fillColor=none;" vertex="1" parent="1">
          <mxGeometry x="656.75" y="325" width="40" height="30" as="geometry" />
        </mxCell>
        <mxCell id="COPAdZCLLeljkkv6jSeN-33" value="end" style="ellipse;whiteSpace=wrap;html=1;" vertex="1" parent="1">
          <mxGeometry x="726.62" y="440" width="120" height="30" as="geometry" />
        </mxCell>
        <mxCell id="COPAdZCLLeljkkv6jSeN-39" value="" style="edgeStyle=orthogonalEdgeStyle;rounded=0;orthogonalLoop=1;jettySize=auto;html=1;exitX=0.18;exitY=0.027;exitDx=0;exitDy=0;exitPerimeter=0;" edge="1" parent="1" source="COPAdZCLLeljkkv6jSeN-44">
          <mxGeometry relative="1" as="geometry">
            <mxPoint x="870" y="260" as="sourcePoint" />
            <mxPoint x="788" y="380" as="targetPoint" />
            <Array as="points">
              <mxPoint x="787" y="350" />
            </Array>
          </mxGeometry>
        </mxCell>
        <mxCell id="COPAdZCLLeljkkv6jSeN-41" value="" style="edgeStyle=orthogonalEdgeStyle;rounded=0;orthogonalLoop=1;jettySize=auto;html=1;" edge="1" parent="1" source="COPAdZCLLeljkkv6jSeN-40">
          <mxGeometry relative="1" as="geometry">
            <mxPoint x="786.62" y="439" as="targetPoint" />
          </mxGeometry>
        </mxCell>
        <mxCell id="COPAdZCLLeljkkv6jSeN-40" value="return arrTemp" style="rounded=0;whiteSpace=wrap;html=1;" vertex="1" parent="1">
          <mxGeometry x="726.62" y="379" width="120" height="20" as="geometry" />
        </mxCell>
        <mxCell id="COPAdZCLLeljkkv6jSeN-42" value="arrTemp.Length &amp;lt;= 0" style="rhombus;whiteSpace=wrap;html=1;" vertex="1" parent="1">
          <mxGeometry x="700" y="315" width="173.25" height="30" as="geometry" />
        </mxCell>
        <mxCell id="COPAdZCLLeljkkv6jSeN-44" value="no" style="text;html=1;align=center;verticalAlign=middle;resizable=0;points=[];autosize=1;strokeColor=none;fillColor=none;" vertex="1" parent="1">
          <mxGeometry x="780" y="345" width="40" height="30" as="geometry" />
        </mxCell>
        <mxCell id="COPAdZCLLeljkkv6jSeN-47" value="return Array(array, value, length)" style="whiteSpace=wrap;html=1;" vertex="1" parent="1">
          <mxGeometry x="630" y="195" width="181.63" height="30" as="geometry" />
        </mxCell>
        <mxCell id="COPAdZCLLeljkkv6jSeN-49" value="" style="endArrow=classic;html=1;rounded=0;exitX=0;exitY=0.5;exitDx=0;exitDy=0;entryX=1;entryY=0.5;entryDx=0;entryDy=0;" edge="1" parent="1" source="COPAdZCLLeljkkv6jSeN-47" target="COPAdZCLLeljkkv6jSeN-4">
          <mxGeometry width="50" height="50" relative="1" as="geometry">
            <mxPoint x="610" y="490" as="sourcePoint" />
            <mxPoint x="660" y="440" as="targetPoint" />
          </mxGeometry>
        </mxCell>
        <mxCell id="COPAdZCLLeljkkv6jSeN-52" value="no" style="text;html=1;align=center;verticalAlign=middle;resizable=0;points=[];autosize=1;strokeColor=none;fillColor=none;" vertex="1" parent="1">
          <mxGeometry x="630" y="365" width="40" height="30" as="geometry" />
        </mxCell>
        <mxCell id="COPAdZCLLeljkkv6jSeN-53" value="yes" style="text;html=1;align=center;verticalAlign=middle;resizable=0;points=[];autosize=1;strokeColor=none;fillColor=none;" vertex="1" parent="1">
          <mxGeometry x="730" y="265" width="40" height="30" as="geometry" />
        </mxCell>
      </root>
    </mxGraphModel>
  </diagram>
</mxfile>
